<svg width="16" height="16" viewBox="0 0 16 16" fill="none" xmlns="http://www.w3.org/2000/svg">
<path d="M15.1917 11.7152L15.1799 11.814C14.7833 11.6163 12.8518 10.6713 12.4921 10.5408C11.6845 10.2416 11.9124 10.4933 10.3617 12.27C10.1312 12.5271 9.90191 12.5468 9.5106 12.3689C9.11535 12.1712 7.84658 11.756 6.34461 10.4116C5.17465 9.3638 4.38941 8.07872 4.15753 7.68331C3.77149 7.01639 4.57913 6.92149 5.31431 5.52966C5.44606 5.25287 5.37887 5.0354 5.28137 4.83901C5.18256 4.64131 4.396 2.70381 4.06662 1.93145C3.75041 1.16172 3.42499 1.25925 3.18125 1.25925C2.42236 1.19335 1.86768 1.2039 1.37888 1.71265C-0.747593 4.05083 -0.211363 6.46282 1.60813 9.0277C5.18387 13.7093 7.08901 14.5713 10.5725 15.7681C11.5132 16.0673 12.3709 16.0251 13.0495 15.9276C13.8057 15.8076 15.3775 14.9773 15.7056 14.0481C16.0415 13.1189 16.0415 12.3478 15.9427 12.1699C15.8452 11.9919 15.587 11.8931 15.1917 11.7152Z" fill="#FAFAFA"/>
</svg>
