<svg width="97" height="61" viewBox="0 0 97 61" fill="none" xmlns="http://www.w3.org/2000/svg">
<path d="M90.8786 30.6497L91.3597 30.786L90.8786 30.6497ZM6.80984 51.7259C6.59957 51.9049 6.57421 52.2204 6.75321 52.4307L9.67009 55.8573C9.84909 56.0676 10.1646 56.093 10.3749 55.914C10.5852 55.735 10.6106 55.4194 10.4316 55.2091L7.83878 52.1632L10.8847 49.5705C11.0949 49.3915 11.1203 49.0759 10.9413 48.8656C10.7623 48.6553 10.4467 48.63 10.2365 48.809L6.80984 51.7259ZM58.2798 5.72828C58.3123 6.22722 58.3123 6.22722 58.3123 6.22722C58.3123 6.22722 58.3123 6.22722 58.3123 6.22722C58.3123 6.22722 58.3123 6.22722 58.3123 6.22722C58.3124 6.22721 58.3125 6.22721 58.3127 6.22719C58.3132 6.22716 58.3139 6.22712 58.3149 6.22706C58.3168 6.22693 58.3199 6.22673 58.3242 6.22648C58.3326 6.22595 58.3455 6.22518 58.3627 6.22417C58.3973 6.22217 58.4492 6.21929 58.5177 6.21585C58.6546 6.20896 58.8578 6.1998 59.1204 6.19092C59.6457 6.17314 60.4083 6.15644 61.3538 6.16098L61.3586 5.16099C60.3989 5.15639 59.6233 5.17333 59.0866 5.19149C58.8183 5.20057 58.6096 5.20996 58.4674 5.21711C58.3963 5.22069 58.3419 5.22371 58.3049 5.22585C58.2864 5.22692 58.2723 5.22778 58.2626 5.22837C58.2578 5.22867 58.2541 5.2289 58.2515 5.22907C58.2502 5.22915 58.2492 5.22921 58.2485 5.22926C58.2481 5.22928 58.2479 5.2293 58.2476 5.22931C58.2475 5.22932 58.2474 5.22933 58.2474 5.22933C58.2473 5.22933 58.2473 5.22934 58.2473 5.22934C58.2472 5.22934 58.2472 5.22934 58.2798 5.72828ZM67.5057 6.46861C69.4118 6.65165 71.4792 6.93606 73.5739 7.37103L73.7772 6.39192C71.6403 5.94817 69.5361 5.65899 67.6013 5.47319L67.5057 6.46861ZM79.4531 9.04221C81.3875 9.76993 83.2233 10.6743 84.8481 11.7951L85.416 10.972C83.7099 9.7951 81.7979 8.85588 79.8052 8.10625L79.4531 9.04221ZM89.0798 15.9976C90.1283 17.5732 90.8704 19.4034 91.1961 21.5345L92.1846 21.3834C91.8368 19.1073 91.041 17.1397 89.9124 15.4436L89.0798 15.9976ZM91.0759 27.5311C90.9165 28.4806 90.6922 29.4741 90.3976 30.5133L91.3597 30.786C91.6635 29.7141 91.8962 28.6849 92.0621 27.6967L91.0759 27.5311ZM90.3976 30.5133C90.1435 31.4097 89.8151 32.2694 89.4174 33.0941L90.3182 33.5284C90.7405 32.6525 91.0896 31.7388 91.3597 30.786L90.3976 30.5133ZM86.2588 37.6179C85.0336 38.9161 83.598 40.1053 81.9835 41.1937L82.5424 42.0229C84.2085 40.8998 85.7028 39.664 86.9861 38.3043L86.2588 37.6179ZM77.0841 43.9545C75.4439 44.7322 73.6975 45.4402 71.8664 46.0839L72.1981 47.0273C74.0575 46.3736 75.8367 45.6527 77.5125 44.8581L77.0841 43.9545ZM66.4598 47.7438C64.6644 48.2241 62.8171 48.6553 60.9347 49.0419L61.1359 50.0215C63.0354 49.6313 64.9019 49.1957 66.7183 48.7099L66.4598 47.7438ZM55.3554 50.0481C53.4915 50.3412 51.6108 50.5968 49.7283 50.8193L49.8456 51.8124C51.7397 51.5886 53.6331 51.3312 55.5107 51.036L55.3554 50.0481ZM44.0727 51.3925C42.165 51.5555 40.2715 51.6883 38.4082 51.7951L38.4654 52.7935C40.3373 52.6861 42.2402 52.5527 44.1579 52.3888L44.0727 51.3925ZM32.7202 52.0492C30.7601 52.1128 28.8567 52.1506 27.0314 52.1686L27.0412 53.1685C28.8735 53.1505 30.7844 53.1125 32.7527 53.0487L32.7202 52.0492ZM21.3477 52.1638C19.2683 52.1401 17.3544 52.0945 15.6504 52.0391L15.6179 53.0386C17.3284 53.0941 19.2493 53.1399 21.3363 53.1637L21.3477 52.1638ZM9.96619 51.7896C9.07044 51.7391 8.37152 51.6937 7.89696 51.6609C7.65968 51.6446 7.4785 51.6313 7.35685 51.6222C7.29604 51.6177 7.25009 51.6142 7.21947 51.6118C7.20417 51.6106 7.19268 51.6097 7.18509 51.6091C7.18129 51.6088 7.17846 51.6086 7.1766 51.6084C7.17568 51.6083 7.175 51.6083 7.17456 51.6083C7.17434 51.6082 7.17419 51.6082 7.17409 51.6082C7.17405 51.6082 7.17402 51.6082 7.17399 51.6082C7.17398 51.6082 7.17398 51.6082 7.17398 51.6082C7.17398 51.6082 7.17399 51.6082 7.13394 52.1066C7.09389 52.605 7.09391 52.605 7.09392 52.605C7.09394 52.605 7.09396 52.605 7.09398 52.605C7.09402 52.605 7.09409 52.605 7.09416 52.605C7.09431 52.605 7.09452 52.6051 7.09479 52.6051C7.09534 52.6051 7.09613 52.6052 7.09717 52.6053C7.09924 52.6054 7.1023 52.6057 7.10632 52.606C7.11437 52.6066 7.1263 52.6076 7.14207 52.6088C7.17359 52.6112 7.22044 52.6148 7.28221 52.6195C7.40571 52.6287 7.58882 52.6421 7.82808 52.6586C8.30659 52.6916 9.00972 52.7373 9.90994 52.788L9.96619 51.7896ZM90.8786 30.6497L91.8407 30.9224L90.8786 30.6497ZM6.48575 51.3451C6.0652 51.7031 6.01448 52.3343 6.37247 52.7548L12.2062 59.6081C12.5642 60.0286 13.1954 60.0793 13.6159 59.7213C14.0365 59.3633 14.0872 58.7322 13.7292 58.3117L8.54361 52.2199L14.6354 47.0343C15.0559 46.6763 15.1067 46.0452 14.7487 45.6246C14.3907 45.2041 13.7595 45.1534 13.339 45.5114L6.48575 51.3451ZM58.2798 5.72828C58.3449 6.72616 58.3448 6.72616 58.3448 6.72616C58.3448 6.72617 58.3447 6.72617 58.3447 6.72617C58.3447 6.72617 58.3447 6.72617 58.3447 6.72617C58.3447 6.72617 58.3447 6.72617 58.3449 6.72616C58.3451 6.72614 58.3457 6.72611 58.3465 6.72605C58.3482 6.72595 58.351 6.72577 58.3549 6.72553C58.3628 6.72504 58.375 6.7243 58.3917 6.72334C58.425 6.72141 58.4756 6.7186 58.5428 6.71522C58.6772 6.70845 58.8776 6.69942 59.1374 6.69063C59.6569 6.67305 60.413 6.65647 61.3514 6.66097L61.361 4.66099C60.3942 4.65635 59.6121 4.67342 59.0697 4.69177C58.7985 4.70095 58.5871 4.71046 58.4423 4.71774C58.3699 4.72139 58.3142 4.72447 58.2759 4.72669C58.2568 4.7278 58.2421 4.72869 58.2318 4.72932C58.2267 4.72964 58.2227 4.72989 58.2198 4.73007C58.2184 4.73016 58.2173 4.73023 58.2164 4.73029C58.216 4.73032 58.2156 4.73034 58.2153 4.73036C58.2152 4.73037 58.215 4.73038 58.2149 4.73039C58.2149 4.73039 58.2148 4.73039 58.2148 4.73039C58.2147 4.7304 58.2146 4.7304 58.2798 5.72828ZM67.4579 6.96632C69.3497 7.14799 71.3987 7.43001 73.4722 7.86059L73.8789 5.90236C71.7208 5.45423 69.5982 5.16265 67.6491 4.97548L67.4579 6.96632ZM79.2771 9.51018C81.1824 10.227 82.98 11.1139 84.5642 12.2067L85.6999 10.5604C83.9532 9.35551 82.003 8.39885 79.9813 7.63827L79.2771 9.51018ZM88.6636 16.2746C89.6719 17.7899 90.3872 19.5514 90.7018 21.61L92.6789 21.3079C92.3199 18.9592 91.4974 16.923 90.3286 15.1666L88.6636 16.2746ZM90.5828 27.4483C90.4266 28.3785 90.2065 29.354 89.9165 30.377L91.8407 30.9224C92.1492 29.8341 92.386 28.787 92.5552 27.7795L90.5828 27.4483ZM89.9165 30.377C89.6705 31.2451 89.3524 32.0778 88.967 32.877L90.7686 33.7456C91.2032 32.8441 91.5626 31.9034 91.8407 30.9224L89.9165 30.377ZM85.8952 37.2748C84.699 38.5422 83.2927 39.7081 81.704 40.7791L82.8219 42.4375C84.5137 41.297 86.0374 40.038 87.3497 38.6475L85.8952 37.2748ZM76.8698 43.5027C75.2475 44.272 73.5175 44.9734 71.7006 45.6122L72.3639 47.499C74.2375 46.8403 76.0331 46.1129 77.7268 45.3098L76.8698 43.5027ZM66.3306 47.2608C64.5456 47.7383 62.708 48.1673 60.8341 48.5521L61.2365 50.5112C63.1445 50.1194 65.0206 49.6815 66.8475 49.1929L66.3306 47.2608ZM55.2777 49.5542C53.4207 49.8462 51.5464 50.101 49.6696 50.3227L49.9043 52.3089C51.8041 52.0844 53.7039 51.8262 55.5883 51.5299L55.2777 49.5542ZM44.0302 50.8943C42.1275 51.0569 40.2386 51.1893 38.3796 51.2959L38.4941 53.2927C40.3702 53.1851 42.2778 53.0513 44.2005 52.887L44.0302 50.8943ZM32.704 51.5495C30.7479 51.6129 28.8483 51.6507 27.0264 51.6686L27.0461 53.6685C28.8819 53.6505 30.7966 53.6124 32.7689 53.5484L32.704 51.5495ZM21.3534 51.6638C19.2778 51.6402 17.3675 51.5946 15.6666 51.5394L15.6017 53.5383C17.3154 53.594 19.2398 53.6399 21.3306 53.6637L21.3534 51.6638ZM9.99432 51.2904C9.1008 51.2401 8.40399 51.1948 7.9314 51.1621C7.69511 51.1458 7.51489 51.1327 7.39418 51.1236C7.33383 51.1191 7.28835 51.1156 7.25818 51.1133C7.2431 51.1121 7.23184 51.1112 7.22447 51.1106C7.22078 51.1104 7.21806 51.1101 7.21632 51.11C7.21545 51.1099 7.21482 51.1099 7.21445 51.1099C7.21425 51.1098 7.21413 51.1098 7.21406 51.1098C7.21403 51.1098 7.214 51.1098 7.214 51.1098C7.214 51.1098 7.21401 51.1098 7.21401 51.1098C7.21402 51.1098 7.21404 51.1098 7.13394 52.1066C7.05385 53.1034 7.05387 53.1034 7.05389 53.1034C7.05391 53.1034 7.05394 53.1034 7.05397 53.1034C7.05403 53.1034 7.0541 53.1034 7.05419 53.1034C7.05437 53.1034 7.05461 53.1035 7.05491 53.1035C7.05551 53.1035 7.05636 53.1036 7.05745 53.1037C7.05964 53.1039 7.0628 53.1041 7.06694 53.1044C7.07521 53.1051 7.08736 53.106 7.10336 53.1073C7.13534 53.1098 7.18265 53.1134 7.24488 53.1181C7.36932 53.1274 7.55339 53.1408 7.79364 53.1574C8.27412 53.1906 8.97937 53.2364 9.8818 53.2872L9.99432 51.2904Z" fill="#666666"/>
</svg>
