<svg width="22" height="22" viewBox="0 0 22 22" fill="none" xmlns="http://www.w3.org/2000/svg">
<g clip-path="url(#clip0)">
<path d="M21.2254 12.7353C21.8818 7.2105 20.9101 3.72258 19.1574 2.14499L19.1583 2.14408C16.3295 -0.550009 6.77601 -0.948759 3.39168 2.26508C1.87185 3.83716 1.33651 6.14442 1.27785 9.00076C1.21918 11.858 1.14951 17.2104 6.13709 18.6624H6.14168L6.13709 20.8799C6.13709 20.8799 6.10318 21.7782 6.67701 21.9588C7.33334 22.1714 7.63034 21.7544 9.67176 19.316C13.0854 19.6121 15.7071 18.9338 16.005 18.8348C16.6943 18.6038 20.5948 18.0877 21.2254 12.7353ZM10.0082 17.7559C10.0082 17.7559 7.8476 20.4499 7.17568 21.1494C6.95568 21.3767 6.71459 21.3556 6.71826 20.9046C6.71826 20.6085 6.73476 17.2233 6.73476 17.2233C2.50618 16.0114 2.75551 11.4538 2.80135 9.06951C2.84718 6.68434 3.28351 4.73092 4.57051 3.4155C7.5396 0.631576 15.9152 1.25399 18.0492 3.25966C20.658 5.57242 19.7294 12.1064 19.7349 12.3292C19.1987 16.797 16.038 17.0803 15.4568 17.2737C15.2084 17.3562 12.903 17.9493 10.0082 17.7559Z" fill="#8E24AA"/>
<path d="M11.2035 3.9389C10.8506 3.9389 10.8506 4.4889 11.2035 4.49349C13.9416 4.51457 16.1966 6.42307 16.2213 9.92382C16.2213 10.2932 16.7622 10.2887 16.7576 9.91924H16.7567C16.7273 6.14715 14.2652 3.95999 11.2035 3.9389Z" fill="#8E24AA"/>
<path d="M14.8051 9.34359C14.7969 9.70842 15.3368 9.72584 15.3414 9.35642C15.3863 7.2765 14.1039 5.56325 11.6939 5.38267C11.341 5.357 11.3043 5.91159 11.6563 5.93725C13.7464 6.09584 14.8473 7.52217 14.8051 9.34359Z" fill="#8E24AA"/>
<path d="M14.2276 11.7095C13.7748 11.4473 13.3137 11.6105 13.123 11.8681L12.7243 12.3842C12.5217 12.6463 12.1431 12.6115 12.1431 12.6115C9.38026 11.8809 8.64142 8.98974 8.64142 8.98974C8.64142 8.98974 8.60751 8.59833 8.86051 8.38841L9.35918 7.97591C9.60851 7.77791 9.76618 7.30124 9.51226 6.83283C8.83392 5.60724 8.37834 5.18466 8.14642 4.86016C7.90259 4.55491 7.53592 4.48616 7.15459 4.69241H7.14634C6.35342 5.15624 5.48534 6.02433 5.76309 6.91808C6.237 7.86041 7.10784 10.8643 9.88351 13.134C11.1879 14.2074 13.2523 15.3074 14.1286 15.5613L14.1368 15.5742C15.0004 15.862 15.84 14.96 16.2883 14.1432V14.1368C16.4872 13.7417 16.4212 13.3677 16.1306 13.123C15.6154 12.6207 14.8381 12.0661 14.2276 11.7095Z" fill="#8E24AA"/>
<path d="M12.0716 7.42867C12.9525 7.48001 13.3797 7.94017 13.4255 8.88525C13.442 9.25467 13.9783 9.229 13.9618 8.85959C13.9031 7.62576 13.2596 6.93826 12.1009 6.87409C11.748 6.85301 11.715 7.40759 12.0716 7.42867Z" fill="#8E24AA"/>
</g>
<defs>
<clipPath id="clip0">
<rect width="22" height="22" fill="white"/>
</clipPath>
</defs>
</svg>
