<svg width="24" height="24" viewBox="0 0 24 24" fill="none" xmlns="http://www.w3.org/2000/svg">
<g clip-path="url(#clip0)">
<path d="M20.52 3.449C18.24 1.245 15.24 0 12.045 0C2.875 0 -2.883 9.935 1.696 17.838L0 24L6.335 22.348C9.095 23.839 11.356 23.707 12.051 23.795C22.684 23.795 27.977 10.931 20.505 3.488L20.52 3.449Z" fill="#ECEFF1"/>
<path d="M12.067 21.751L12.061 21.75H12.045C8.863 21.75 6.83 20.243 6.63 20.156L2.88 21.131L3.885 17.486L3.646 17.111C2.656 15.535 2.13 13.72 2.13 11.851C2.13 3.058 12.875 -1.339 19.093 4.876C25.296 11.026 20.941 21.751 12.067 21.751Z" fill="#4CAF50"/>
<path d="M17.507 14.307L17.498 14.382C17.197 14.232 15.731 13.515 15.458 13.416C14.845 13.189 15.018 13.38 13.841 14.728C13.666 14.923 13.492 14.938 13.195 14.803C12.895 14.653 11.932 14.338 10.792 13.318C9.90399 12.523 9.30799 11.548 9.13199 11.248C8.83899 10.742 9.45199 10.67 10.01 9.61399C10.11 9.40399 10.059 9.23899 9.98499 9.08999C9.90999 8.93999 9.31299 7.46999 9.06299 6.88399C8.82299 6.29999 8.57599 6.37399 8.39099 6.37399C7.81499 6.32399 7.39399 6.33199 7.02298 6.71799C5.40898 8.49199 5.81598 10.322 7.19699 12.268C9.91099 15.82 11.357 16.474 14.001 17.382C14.715 17.609 15.366 17.577 15.881 17.503C16.455 17.412 17.648 16.782 17.897 16.077C18.152 15.372 18.152 14.787 18.077 14.652C18.003 14.517 17.807 14.442 17.507 14.307Z" fill="#FAFAFA"/>
</g>
<defs>
<clipPath id="clip0">
<rect width="24" height="24" fill="white"/>
</clipPath>
</defs>
</svg>
