<svg width="103" height="43" viewBox="0 0 103 43" fill="none" xmlns="http://www.w3.org/2000/svg">
<path d="M81.0002 11.5L80.8906 11.9878L81.0002 11.5ZM2.73709 19.9251C2.50227 19.7798 2.42972 19.4717 2.57504 19.2369L4.94306 15.4103C5.08838 15.1755 5.39654 15.1029 5.63135 15.2483C5.86617 15.3936 5.93872 15.7017 5.79341 15.9365L3.6885 19.3379L7.08987 21.4428C7.32468 21.5881 7.39723 21.8963 7.25192 22.1311C7.10661 22.3659 6.79845 22.4385 6.56363 22.2932L2.73709 19.9251ZM98.0001 42C97.5115 41.8939 97.5115 41.8939 97.5115 41.894C97.5115 41.894 97.5115 41.894 97.5115 41.894C97.5115 41.894 97.5115 41.894 97.5115 41.894C97.5115 41.894 97.5115 41.8939 97.5115 41.8937C97.5116 41.8934 97.5118 41.8927 97.512 41.8918C97.5124 41.8899 97.513 41.8868 97.5139 41.8825C97.5157 41.874 97.5185 41.8608 97.5221 41.8429C97.5294 41.8073 97.5402 41.7534 97.5537 41.6821C97.5809 41.5394 97.6192 41.3274 97.6631 41.0536C97.7509 40.506 97.8609 39.712 97.9484 38.7327L98.9444 38.8217C98.8546 39.827 98.7415 40.6443 98.6505 41.212C98.6049 41.4958 98.5649 41.7174 98.5361 41.869C98.5217 41.9447 98.5101 42.003 98.5019 42.0429C98.4979 42.0628 98.4947 42.0781 98.4924 42.0887C98.4913 42.094 98.4905 42.0981 98.4898 42.101C98.4895 42.1025 98.4893 42.1036 98.4891 42.1045C98.489 42.1049 98.4889 42.1052 98.4889 42.1055C98.4888 42.1057 98.4888 42.1058 98.4888 42.1059C98.4888 42.1059 98.4888 42.106 98.4888 42.106C98.4887 42.1061 98.4887 42.1061 98.0001 42ZM97.9693 32.3137C97.7967 30.3144 97.4309 28.1676 96.754 26.0365L97.7071 25.7338C98.4107 27.9491 98.788 30.1707 98.9656 32.2277L97.9693 32.3137ZM94.0029 20.3204C92.8625 18.6605 91.4211 17.1167 89.605 15.7865L90.1959 14.9798C92.1081 16.3803 93.6268 18.007 94.8271 19.7542L94.0029 20.3204ZM83.9791 12.8682C83.0161 12.5298 81.9881 12.2344 80.8906 11.9878L81.1099 11.0121C82.2437 11.2669 83.3093 11.5729 84.3106 11.9247L83.9791 12.8682ZM80.8906 11.9878C80.0333 11.7952 79.1255 11.6287 78.1718 11.487L78.3189 10.4979C79.2935 10.6427 80.2257 10.8135 81.1099 11.0121L80.8906 11.9878ZM72.618 10.9534C70.8364 10.8597 68.9618 10.8234 67.0153 10.8372L67.0082 9.83718C68.9713 9.82331 70.8661 9.85985 72.6705 9.95475L72.618 10.9534ZM61.4032 11C59.5684 11.0895 57.6935 11.2131 55.7939 11.3654L55.714 10.3686C57.6228 10.2155 59.5081 10.0912 61.3545 10.0012L61.4032 11ZM50.1987 11.8861C48.341 12.0813 46.4745 12.2982 44.6129 12.532L44.4883 11.5398C46.356 11.3052 48.2292 11.0876 50.0942 10.8916L50.1987 11.8861ZM39.0376 13.2819C37.1604 13.5503 35.3028 13.8313 33.4791 14.1198L33.3229 13.1321C35.151 12.8429 37.0136 12.5611 38.896 12.292L39.0376 13.2819ZM27.9264 15.0365C26.0128 15.3653 24.1589 15.6966 22.384 16.0237L22.2027 15.0402C23.9813 14.7125 25.8392 14.3804 27.7571 14.051L27.9264 15.0365ZM16.8615 17.0742C14.8392 17.4708 12.9817 17.8482 11.3298 18.1918L11.1262 17.2128C12.7814 16.8684 14.6427 16.4903 16.669 16.0929L16.8615 17.0742ZM5.83092 19.3713C4.95901 19.5645 4.27951 19.7185 3.81821 19.8241C3.58757 19.8769 3.41148 19.9176 3.29317 19.945C3.23401 19.9588 3.1893 19.9692 3.15943 19.9762C3.1445 19.9797 3.13329 19.9823 3.12583 19.9841C3.1221 19.9849 3.11932 19.9856 3.11747 19.986C3.11656 19.9862 3.11587 19.9864 3.11542 19.9865C3.1152 19.9866 3.11504 19.9866 3.11494 19.9866C3.11488 19.9866 3.11484 19.9866 3.11482 19.9867C3.11481 19.9867 3.11481 19.9867 3.1148 19.9867C3.1148 19.9867 3.1148 19.9867 3.00021 19.5C2.88562 19.0133 2.88562 19.0133 2.88564 19.0133C2.88565 19.0133 2.88566 19.0133 2.88569 19.0133C2.88572 19.0133 2.88577 19.0132 2.88584 19.0132C2.88597 19.0132 2.88616 19.0131 2.88642 19.0131C2.88693 19.013 2.88767 19.0128 2.88865 19.0126C2.89061 19.0121 2.89352 19.0114 2.89737 19.0105C2.90506 19.0087 2.91653 19.006 2.9317 19.0025C2.96206 18.9954 3.00726 18.9848 3.06692 18.971C3.18624 18.9433 3.36337 18.9023 3.59508 18.8493C4.0585 18.7432 4.74027 18.5887 5.61457 18.395L5.83092 19.3713ZM81.0002 11.5L80.781 12.4757L81.0002 11.5ZM2.47398 20.3503C2.00435 20.0597 1.85924 19.4434 2.14986 18.9737L6.88593 11.3207C7.17655 10.851 7.79286 10.7059 8.2625 10.9965C8.73213 11.2872 8.87724 11.9035 8.58662 12.3731L4.37678 19.1759L11.1795 23.3857C11.6492 23.6763 11.7943 24.2926 11.5036 24.7623C11.213 25.2319 10.5967 25.377 10.1271 25.0864L2.47398 20.3503ZM98.0001 42C97.0229 41.7877 97.0229 41.7878 97.0229 41.7879C97.0229 41.7879 97.0228 41.788 97.0228 41.7881C97.0228 41.7882 97.0228 41.7882 97.0228 41.7883C97.0228 41.7884 97.0228 41.7884 97.0228 41.7883C97.0228 41.7882 97.0229 41.7878 97.023 41.7871C97.0233 41.7858 97.0239 41.7832 97.0247 41.7794C97.0263 41.7719 97.0288 41.7597 97.0322 41.743C97.0391 41.7095 97.0494 41.6577 97.0625 41.5886C97.0888 41.4505 97.1263 41.2432 97.1694 40.9745C97.2556 40.4369 97.364 39.6545 97.4504 38.6882L99.4424 38.8662C99.3514 39.8845 99.2368 40.7135 99.1442 41.2911C99.0978 41.58 99.057 41.8064 99.0273 41.9624C99.0125 42.0404 99.0004 42.1009 98.9918 42.1429C98.9876 42.1638 98.9841 42.1802 98.9817 42.1918C98.9805 42.1976 98.9795 42.2022 98.9788 42.2056C98.9784 42.2073 98.9781 42.2087 98.9779 42.2098C98.9777 42.2104 98.9776 42.2109 98.9775 42.2113C98.9775 42.2115 98.9775 42.2117 98.9774 42.2118C98.9774 42.2119 98.9774 42.212 98.9774 42.212C98.9774 42.2122 98.9773 42.2123 98.0001 42ZM97.4712 32.3567C97.301 30.3863 96.941 28.2769 96.2774 26.1879L98.1836 25.5824C98.9006 27.8398 99.2836 30.0988 99.4637 32.1847L97.4712 32.3567ZM93.5908 20.6036C92.4803 18.9872 91.0777 17.4849 89.3096 16.1899L90.4914 14.5764C92.4515 16.0121 94.009 17.6803 95.2393 19.4711L93.5908 20.6036ZM83.8133 13.3399C82.8696 13.0083 81.8603 12.7182 80.781 12.4757L81.2195 10.5243C82.3715 10.7832 83.4559 11.0944 84.4764 11.453L83.8133 13.3399ZM80.781 12.4757C79.9371 12.286 79.0414 12.1217 78.0983 11.9816L78.3924 10.0033C79.3775 10.1497 80.3219 10.3226 81.2195 10.5243L80.781 12.4757ZM72.5917 11.4527C70.8216 11.3596 68.957 11.3235 67.0188 11.3371L67.0047 9.3372C68.9761 9.32327 70.8809 9.35994 72.6968 9.45544L72.5917 11.4527ZM61.4276 11.4994C59.5985 11.5886 57.7289 11.7118 55.8339 11.8638L55.674 9.87021C57.5874 9.71677 59.478 9.59211 61.3301 9.50176L61.4276 11.4994ZM50.251 12.3834C48.3969 12.5782 46.5338 12.7947 44.6752 13.0281L44.426 11.0437C46.2968 10.8088 48.1733 10.5907 50.042 10.3944L50.251 12.3834ZM39.1083 13.7769C37.2338 14.0449 35.3786 14.3255 33.5572 14.6137L33.2447 12.6382C35.0752 12.3487 36.9402 12.0666 38.8252 11.797L39.1083 13.7769ZM28.011 15.5293C26.0996 15.8577 24.2476 16.1886 22.4746 16.5154L22.1121 14.5485C23.8925 14.2204 25.7525 13.888 27.6724 13.5582L28.011 15.5293ZM16.9577 17.5649C14.9374 17.9611 13.0818 18.338 11.4317 18.6813L11.0243 16.7232C12.6813 16.3785 14.5444 16.0001 16.5728 15.6023L16.9577 17.5649ZM5.93908 19.8595C5.06838 20.0524 4.39001 20.2061 3.92979 20.3114C3.69967 20.3641 3.5241 20.4047 3.40629 20.4321C3.34739 20.4458 3.30292 20.4561 3.2733 20.4631C3.25849 20.4665 3.2474 20.4691 3.24006 20.4708C3.2364 20.4717 3.23367 20.4723 3.23189 20.4728C3.231 20.473 3.23034 20.4731 3.22993 20.4732C3.22972 20.4733 3.22957 20.4733 3.22948 20.4733C3.22943 20.4733 3.22941 20.4733 3.22939 20.4733C3.22938 20.4734 3.22938 20.4734 3.22938 20.4734C3.22938 20.4734 3.22939 20.4733 3.00021 19.5C2.77102 18.5266 2.77104 18.5266 2.77105 18.5266C2.77107 18.5266 2.77109 18.5266 2.77111 18.5266C2.77116 18.5266 2.77122 18.5265 2.77129 18.5265C2.77144 18.5265 2.77165 18.5264 2.77192 18.5264C2.77245 18.5262 2.77323 18.5261 2.77423 18.5258C2.77625 18.5254 2.77923 18.5247 2.78313 18.5237C2.79096 18.5219 2.80254 18.5192 2.81784 18.5156C2.84843 18.5085 2.89389 18.4978 2.9538 18.4839C3.07362 18.4561 3.25127 18.415 3.48351 18.3619C3.948 18.2555 4.6309 18.1008 5.5064 17.9068L5.93908 19.8595Z" fill="white"/>
</svg>
